# xmcd CD database file
#
# Track frame offsets:
#	150
#	16802
#	35576
#	51198
#	66934
#	81905
#	107376
#	135923
#	151041
#	169949
#	188510
#
# Disc length: 2764 seconds
#
# Revision: 0
# Processed by: cddbd v1.5.2PL0 Copyright (c) Steve Scherf et al.
# Submitted via: CDex 1.70beta2
#
DISCID=7d0aca0b
DTITLE=The Waxed Tadpoles - Red Line
DYEAR=1998
DGENRE=Blues
TTITLE0=Join To One
TTITLE1=Coupe De Ville
TTITLE2=No Booze Blues
TTITLE3=Treat Her Right
TTITLE4=Soul Train
TTITLE5=Darkest Hour
TTITLE6=Just Want To Love You
TTITLE7=Preacher
TTITLE8=Wild Life
TTITLE9=Girlfriend's Man
TTITLE10=Roadhouse Blues
EXTD=YEAR: 1998
EXTT0=
EXTT1=
EXTT2=
EXTT3=
EXTT4=
EXTT5=
EXTT6=
EXTT7=
EXTT8=
EXTT9=
EXTT10=
PLAYORDER=
